<svg id="圖層_1" data-name="圖層 1" xmlns="http://www.w3.org/2000/svg" viewBox="0 0 150 150"><defs><style>.cls-1{fill:#040000;}</style></defs><path class="cls-1" d="M121.91,97.41a22.26,22.26,0,0,0-14.35-5.56V24.07a13.21,13.21,0,0,1,8.06,2.48,14,14,0,0,1,6.28,11.93q0,28.8,0,57.58Z"/><path class="cls-1" d="M99,24.05c-18.84,0-37.67,0-56.5,0A13.56,13.56,0,0,0,30.3,30.91a33.37,33.37,0,0,0-2.21,5.64V97.4a22.8,22.8,0,0,1,15.56-5.56c18.39,0,36.79,0,55.18,0h1.33V24.05ZM52,40.87c-1.56,0-3.12,0-4.68,0s-3,0-4.56,0a3.61,3.61,0,1,1-.05-7.21c3.08,0,6.16,0,9.24,0a3.61,3.61,0,1,1,0,7.2ZM79.14,58.75,64,77.56a.25.25,0,0,1-.44-.23l4.07-14.1a.25.25,0,0,0-.25-.33L62.94,63a.26.26,0,0,1-.2-.42L77.83,43.91a.25.25,0,0,1,.44.24L73.88,58.06a.25.25,0,0,0,.24.33l4.82,0A.25.25,0,0,1,79.14,58.75Z"/><path class="cls-1" d="M107.48,97.1h-65a14.43,14.43,0,0,0,0,28.86h65a14.43,14.43,0,0,0,0-28.86Zm-65,18a3.61,3.61,0,1,1,3.64-3.57A3.73,3.73,0,0,1,42.49,115.13Zm13.32,0a3.61,3.61,0,1,1,3.55-3.65A3.73,3.73,0,0,1,55.81,115.13Zm50.51,0c-1.56,0-3.12,0-4.68,0s-3,0-4.56,0a3.61,3.61,0,1,1,0-7.21q4.62,0,9.24,0a3.6,3.6,0,1,1,0,7.2Z"/></svg>