<svg id="圖層_1" data-name="圖層 1" xmlns="http://www.w3.org/2000/svg" viewBox="0 0 150 150"><defs><style>.cls-1{fill:#fff;}</style></defs><path class="cls-1" d="M67.46,133.51a24.67,24.67,0,0,1-3.89-2,8.16,8.16,0,0,1-3.07-6c-.18-2.14,0-4.31,0-6.52H89.62c0,1,0,2,0,3a27.55,27.55,0,0,1-.15,4.55,8.31,8.31,0,0,1-6.42,6.8,3.74,3.74,0,0,0-.51.22Z"/><path class="cls-1" d="M133.5,75.91a4.23,4.23,0,0,1-4.59,2.77c-2.81-.12-5.63,0-8.45,0a3.66,3.66,0,1,1,0-7.3c2.82,0,5.64.09,8.45,0a4.24,4.24,0,0,1,4.59,2.77Z"/><path class="cls-1" d="M60,111.42a15.91,15.91,0,0,0-6.68-10.13,24.82,24.82,0,0,1-3.94-3.8A33.62,33.62,0,0,1,40.92,73,34.15,34.15,0,0,1,66.15,42c19.35-5.11,39.15,7.38,42.41,27,2.15,12.95-2,23.8-11.9,32.35C93.55,104,90.94,106.92,90,111a.93.93,0,0,1-.71.5q-14.57,0-29.13,0S60.1,111.5,60,111.42ZM76.88,53.07c-2.46-.09-4.23,1.39-4.27,3.57s1.61,3.68,4,3.74a12.83,12.83,0,0,1,8.59,3.45,13.06,13.06,0,0,1,4.41,9.68,3.66,3.66,0,1,0,7.3-.2,16,16,0,0,0-.16-1.7A20.73,20.73,0,0,0,76.88,53.07Z"/><path class="cls-1" d="M78.65,25c0,1.59,0,3.19,0,4.79a3.65,3.65,0,0,1-7.3,0c0-3.23,0-6.47,0-9.7a3.65,3.65,0,0,1,7.29,0C78.67,21.69,78.65,23.32,78.65,25Z"/><path class="cls-1" d="M24.88,78.65c-1.6,0-3.19,0-4.79,0a3.65,3.65,0,0,1,0-7.3c3.23,0,6.47,0,9.7,0a3.65,3.65,0,0,1,0,7.3C28.15,78.67,26.51,78.65,24.88,78.65Z"/><path class="cls-1" d="M46.69,42.57c-.13,1.89-.77,3-2.13,3.69a3.26,3.26,0,0,1-3.84-.43c-2.51-2.38-5-4.83-7.34-7.34a3.64,3.64,0,0,1,5.08-5.15c2.52,2.37,5,4.84,7.34,7.34A5.86,5.86,0,0,1,46.69,42.57Z"/><path class="cls-1" d="M117.52,36.67a8.34,8.34,0,0,1-1.16,2.1c-2.19,2.32-4.47,4.57-6.76,6.79a3.66,3.66,0,1,1-5.16-5.18q3.34-3.43,6.78-6.78a3.46,3.46,0,0,1,4.09-.72C116.73,33.54,117.37,34.72,117.52,36.67Z"/><path class="cls-1" d="M36.62,117.53c-1.83-.14-3-.75-3.67-2.1a3.28,3.28,0,0,1,.43-3.93q3.54-3.73,7.26-7.27a3.64,3.64,0,0,1,5.16,5.09c-2.35,2.49-4.79,4.9-7.27,7.26A6.27,6.27,0,0,1,36.62,117.53Z"/><path class="cls-1" d="M117.52,113.44c-.16,1.83-.78,3-2.14,3.64a3.23,3.23,0,0,1-3.83-.42q-3.78-3.57-7.35-7.34a3.64,3.64,0,0,1,5.07-5.16c2.55,2.4,5,4.9,7.42,7.43A5.77,5.77,0,0,1,117.52,113.44Z"/></svg>