<svg id="圖層_1" data-name="圖層 1" xmlns="http://www.w3.org/2000/svg" viewBox="0 0 150 150"><path d="M34.15,46.94A11.57,11.57,0,0,0,45.71,58.5h58.58a11.57,11.57,0,0,0,11.56-11.56V24.14H34.15Z"/><path d="M115.07,18.76a11.56,11.56,0,0,0-10.78-7.41H45.71a11.56,11.56,0,0,0-10.78,7.41Z"/><path d="M42.56,62.78c0,.62,2.41,35.05,2.45,35.65a29.78,29.78,0,0,0,59.48-.59c0-.42,3-34.65,3-35.06Zm33.56,42.41a1.12,1.12,0,0,1-2.24,0V80.36a1.12,1.12,0,0,1,2.24,0Z"/><path d="M41.6,98.34c0-.37-.88-12.78-1.58-22.86a5.16,5.16,0,0,0-4.45,5.1V95.2a5.17,5.17,0,0,0,5.17,5.17h1.07C41.72,99.7,41.65,99,41.6,98.34Z"/><path d="M108,98.34c0-.37.89-12.78,1.58-22.86a5.16,5.16,0,0,1,4.45,5.1V95.2a5.16,5.16,0,0,1-5.17,5.17h-1.06C107.83,99.7,107.91,99,108,98.34Z"/><path d="M74.73,130.38a29.58,29.58,0,0,1-7.92-1.08,7.73,7.73,0,0,0-.08,1.08,8.27,8.27,0,1,0,16.44-1.22A29.74,29.74,0,0,1,74.73,130.38Z"/></svg>