<svg id="圖層_1" data-name="圖層 1" xmlns="http://www.w3.org/2000/svg" viewBox="0 0 150 150"><defs><style>.cls-1{fill:none;stroke:#fff;stroke-width:8.02px;}.cls-2{fill:#020202;}</style></defs><path d="M118.49,87.91a1.34,1.34,0,0,0-2.18,1c0,2.13,0,4.14,0,6.14.19,4.43-1.45,5-5.43,4.53-10.19-1.27-16-5.9-23.42-12.68-4.4-4-8.63-8.24-12.84-12.47C78.87,70.22,83.1,66,87.5,62c7.41-6.78,13.23-11.42,23.42-12.68,4-.5,5.62.1,5.43,4.53-.09,2-.06,4,0,6.14a1.34,1.34,0,0,0,2.18,1l20.73-16.74a1.33,1.33,0,0,0,0-2.08L118.5,25.44a1.34,1.34,0,0,0-2.18,1v8c0,2.25-1.08,3.24-3.28,3.35-1.37.06-2.73.16-4.08.33-9.44,1.17-15.12,4.74-22.77,10.33-6.84,5-12.74,11-18.6,17.05l-.91.93c-6.87-6.71-14.24-12.75-23-16.91a64.85,64.85,0,0,0-27.85-6c-1.18,0-2.35,0-3.53,0-1.5,0-2,.52-2,2.06,0,1.92,0,3.85,0,5.77a3.47,3.47,0,0,0,3.49,3.45,63.92,63.92,0,0,1,12.87,1A56.41,56.41,0,0,1,50.23,67a106.27,106.27,0,0,1,8.53,7.45,106.27,106.27,0,0,1-8.53,7.45A56.27,56.27,0,0,1,26.64,93.05a63.21,63.21,0,0,1-12.87,1,3.47,3.47,0,0,0-3.49,3.45c0,1.92,0,3.85,0,5.77,0,1.53.51,2,2,2.06,1.18,0,2.35,0,3.53,0a65,65,0,0,0,27.85-6c8.75-4.17,16.12-10.2,23-16.92.3.32.6.63.91.94,5.86,6.06,11.76,12.06,18.6,17,7.65,5.59,13.33,9.16,22.77,10.33,1.35.17,2.71.26,4.08.33,2.2.1,3.25,1.1,3.28,3.35v8a1.34,1.34,0,0,0,2.18,1l20.72-16.73a1.33,1.33,0,0,0,0-2.08Z"/><path class="cls-1" d="M88.17,25,43.33,80.34a.76.76,0,0,0,.59,1.24l13.2-.14a.76.76,0,0,1,.74,1L45.74,124.32a.76.76,0,0,0,1.33.69l45-55.9a.76.76,0,0,0-.6-1.24L77.15,68a.76.76,0,0,1-.73-1L89.48,25.7A.76.76,0,0,0,88.17,25Z"/><path class="cls-2" d="M88.17,25,43.33,80.34a.76.76,0,0,0,.59,1.24l13.2-.14a.76.76,0,0,1,.74,1L45.74,124.32a.76.76,0,0,0,1.33.69l45-55.9a.76.76,0,0,0-.6-1.24L77.15,68a.76.76,0,0,1-.73-1L89.48,25.7A.76.76,0,0,0,88.17,25Z"/></svg>