<svg id="圖層_1" data-name="圖層 1" xmlns="http://www.w3.org/2000/svg" viewBox="0 0 150 150"><defs><style>.cls-1{fill:#fff;}</style></defs><path class="cls-1" d="M100,14,45.26,81.52A.92.92,0,0,0,46,83l16.11-.17a.93.93,0,0,1,.9,1.19L48.21,135.2a.93.93,0,0,0,1.61.84l54.92-68.23A.93.93,0,0,0,104,66.3l-17.46.19a.93.93,0,0,1-.9-1.21L101.6,14.82A.93.93,0,0,0,100,14Z"/><path class="cls-1" d="M30.67,73.16A44.33,44.33,0,0,1,75,28.84a45,45,0,0,1,8.18.77l9.74-11.36A57.75,57.75,0,0,0,47.71,124L51.89,111A44.26,44.26,0,0,1,30.67,73.16Z"/><path class="cls-1" d="M102.61,22.47,98.13,35.38A44.31,44.31,0,0,1,75,117.49a43.44,43.44,0,0,1-5.74-.42l-9.94,11.66A57.73,57.73,0,0,0,102.61,22.47Z"/></svg>