<svg id="圖層_1" data-name="圖層 1" xmlns="http://www.w3.org/2000/svg" viewBox="0 0 150 150"><defs><style>.cls-1{fill:#fff;}</style></defs><path class="cls-1" d="M85.62,30.5H46.14a6.38,6.38,0,0,0-6.36,6.36V98.58a6.38,6.38,0,0,0,6.36,6.36H85.62A6.38,6.38,0,0,0,92,98.58V36.86A6.38,6.38,0,0,0,85.62,30.5ZM74.41,63.65,59.25,82.48a.26.26,0,0,1-.45-.23l4.08-14.12a.25.25,0,0,0-.25-.33l-4.44,0a.26.26,0,0,1-.2-.42L73.1,48.78a.26.26,0,0,1,.44.24L69.14,63a.25.25,0,0,0,.24.33l4.83-.05A.26.26,0,0,1,74.41,63.65Z"/><path class="cls-1" d="M57.93,28.68V20.19a4.53,4.53,0,0,0-9.06,0v8.49Z"/><path class="cls-1" d="M81.54,28.68V20.19a4.53,4.53,0,0,0-9.05,0v8.49Z"/><path class="cls-1" d="M124.64,69.07c0,2.32.12,12.49-.2,14.78a5.89,5.89,0,0,1-5.91,4.82c-2.56,0-5.12,0-7.67,0a6.17,6.17,0,0,1-6.06-6c0-2.09,0-11.34,0-13.52"/><path class="cls-1" d="M64.42,128.81c1.3,0,2.54,0,3.77,0a1.28,1.28,0,0,1,.8.64,6.19,6.19,0,0,0,5.9,3.47c18.38,0,12.74,0,31.12,0a6.25,6.25,0,0,0,6.64-6.66q0-15.48,0-30.95V93.68h4.15V95c0,10.36-.15,20.72,0,31.08a10.87,10.87,0,0,1-11.07,11.05c-18.47-.16-12.91-.05-31.38-.06a10.37,10.37,0,0,1-9.88-7.52A5.06,5.06,0,0,1,64.42,128.81Z"/><path class="cls-1" d="M55.87,120.57H76.58c0,.71,0,1.39,0,2.06a2,2,0,0,1-2.06,2q-8.28,0-16.57,0a1.94,1.94,0,0,1-2.07-2C55.84,122,55.87,121.35,55.87,120.57Z"/><path class="cls-1" d="M50.72,107.74h31c0,.71,0,7.63,0,8.3-.1,1.23-1.23,2-3.09,2q-12.4,0-24.81,0c-1.88,0-3-.77-3.09-2C50.68,115.41,50.72,108.52,50.72,107.74Z"/><path class="cls-1" d="M109.76,89.81h9.92c0,.42,0,.83,0,1.23a1.17,1.17,0,0,1-1.23,1.21c-2.48,0-5,0-7.44,0a1.17,1.17,0,0,1-1.24-1.2C109.74,90.66,109.76,90.28,109.76,89.81Z"/><rect class="cls-1" x="106.25" y="61.74" width="16.93" height="5.78" rx="0.3"/></svg>