<svg id="圖層_1" data-name="圖層 1" xmlns="http://www.w3.org/2000/svg" viewBox="0 0 150 150"><defs><style>.cls-1{fill:#fff;}</style></defs><path class="cls-1" d="M35.53,65.83V19.6c0-4.33,2.59-6.91,6.94-6.91H92.4c4.26,0,6.88,2.6,6.88,6.84v92.59c0,4.24-2.62,6.84-6.87,6.84q-25,0-50.07,0c-4.16,0-6.81-2.63-6.81-6.77ZM46.15,89.21A21.25,21.25,0,1,0,67.32,68,21.4,21.4,0,0,0,46.15,89.21ZM67.34,63.7A21.26,21.26,0,1,0,46.15,42.32,21.4,21.4,0,0,0,67.34,63.7Z"/><path class="cls-1" d="M107.31,73.51h20.3c0,.21.06.41.06.61a60.4,60.4,0,0,1-.21,7.13,6,6,0,0,1-6.06,5q-3.95,0-7.87,0A6.31,6.31,0,0,1,107.32,80C107.3,77.89,107.31,75.74,107.31,73.51Z"/><path class="cls-1" d="M117.48,63.3h11.13c1.2,0,1.6.4,1.6,1.62q0,2.26,0,4.53c0,1-.45,1.47-1.44,1.47H106.2a1.25,1.25,0,0,1-1.43-1.4c0-1.61,0-3.23,0-4.84,0-1,.45-1.38,1.43-1.38Z"/><path class="cls-1" d="M65.55,131.73c1.33,0,2.6,0,3.87,0a1.26,1.26,0,0,1,.81.65A6.36,6.36,0,0,0,76.29,136h32.27c4.13,0,6.8-2.7,6.81-6.83q0-15.87,0-31.74V95.7h4.25v1.37c0,10.62-.15,21.25.06,31.87a11.15,11.15,0,0,1-11.36,11.34c-18.94-.17-13.59-.05-32.53-.06a10.64,10.64,0,0,1-10.14-7.71A5.39,5.39,0,0,1,65.55,131.73Z"/><path class="cls-1" d="M56.78,123.27H78c0,.73,0,1.43,0,2.12a2,2,0,0,1-2.12,2.07q-8.5,0-17,0a2,2,0,0,1-2.11-2.06C56.75,124.74,56.78,124.08,56.78,123.27Z"/><path class="cls-1" d="M112.4,88.79h10.18c0,.43,0,.85,0,1.26a1.2,1.2,0,0,1-1.26,1.24q-3.82,0-7.63,0a1.2,1.2,0,0,1-1.27-1.23C112.39,89.66,112.4,89.27,112.4,88.79Z"/><path class="cls-1" d="M112.4,60.74h-2.46a2.51,2.51,0,0,1-.08-.45c0-1.93,0-3.86,0-5.79,0-.88.49-1.39,1.27-1.38a1.23,1.23,0,0,1,1.27,1.39C112.41,56.56,112.4,58.62,112.4,60.74Z"/><path class="cls-1" d="M122.59,60.71c0-2.19,0-4.35,0-6.51a1.1,1.1,0,0,1,1.23-1.08,1.16,1.16,0,0,1,1.27,1.14c0,2.13,0,4.27,0,6.45Z"/><path class="cls-1" d="M84.4,89.17a17,17,0,1,1-17-17A16.9,16.9,0,0,1,84.4,89.17Zm-27.62,0c0,.71,0,1.42,0,2.12a2.07,2.07,0,0,0,2.12,2.09,2,2,0,0,0,2.08-2A40,40,0,0,0,61,87a2.12,2.12,0,0,0-2.19-2,2.15,2.15,0,0,0-2,2.09C56.74,87.75,56.78,88.46,56.78,89.17Zm17,0a21.09,21.09,0,0,0,0,2.25,2.09,2.09,0,0,0,4.16,0,32.52,32.52,0,0,0,0-4.63,2,2,0,0,0-2-1.89,2.07,2.07,0,0,0-2.11,2A21.28,21.28,0,0,0,73.79,89.19Z"/><path class="cls-1" d="M67.48,25.44A17,17,0,1,1,50.4,42.23,16.87,16.87,0,0,1,67.48,25.44ZM78,42.37h0a21.1,21.1,0,0,0,0-2.25,2.1,2.1,0,0,0-2.14-1.93,2.06,2.06,0,0,0-2,2,42.27,42.27,0,0,0,0,4.36,2.1,2.1,0,0,0,4.2,0C78.07,43.87,78,43.11,78,42.37Zm-21.23,0c0,.75,0,1.5,0,2.24a2.08,2.08,0,0,0,2,2.06A2,2,0,0,0,61,44.75a35.61,35.61,0,0,0,0-4.62,2,2,0,0,0-2.12-1.94,2.11,2.11,0,0,0-2.06,2C56.73,40.9,56.78,41.61,56.78,42.32Z"/></svg>