<svg id="圖層_1" data-name="圖層 1" xmlns="http://www.w3.org/2000/svg" viewBox="0 0 150 150"><rect x="51.57" y="26.56" width="46.85" height="8.6" rx="1.34"/><rect x="51.57" y="42.48" width="46.85" height="8.6" rx="1.34"/><rect x="51.57" y="58.39" width="46.85" height="8.6" rx="1.34"/><path d="M75,82.94A16.44,16.44,0,0,0,58.61,99.33v35.45H91.39V99.33A16.44,16.44,0,0,0,75,82.94ZM75,94.6a4.8,4.8,0,1,1-4.8,4.8A4.8,4.8,0,0,1,75,94.6Zm0,32.45A9.1,9.1,0,1,1,84.1,118,9.1,9.1,0,0,1,75,127.05Z"/><path d="M105.9,15.22H44.1a4.63,4.63,0,0,0-4.62,4.62V130.16a4.63,4.63,0,0,0,4.62,4.62H55.58V99.38a19.42,19.42,0,0,1,38.84,0v35.4H105.9a4.63,4.63,0,0,0,4.62-4.62V19.84A4.63,4.63,0,0,0,105.9,15.22Zm-5.09,52a2.34,2.34,0,0,1-2.33,2.33h-47a2.34,2.34,0,0,1-2.33-2.33v-9a2.34,2.34,0,0,1,2.33-2.33h47a2.34,2.34,0,0,1,2.33,2.33Zm0-15.92a2.34,2.34,0,0,1-2.33,2.33h-47a2.34,2.34,0,0,1-2.33-2.33v-9A2.34,2.34,0,0,1,51.52,40h47a2.34,2.34,0,0,1,2.33,2.33Zm0-15.92a2.33,2.33,0,0,1-2.33,2.33h-47a2.33,2.33,0,0,1-2.33-2.33v-9A2.34,2.34,0,0,1,51.52,24h47a2.34,2.34,0,0,1,2.33,2.33Z"/><circle cx="75" cy="99.4" r="2.11"/><path d="M76.44,111.71v4.18a1.44,1.44,0,0,1-2.88,0v-4.18a6.43,6.43,0,1,0,2.88,0Z"/></svg>