<svg id="art" xmlns="http://www.w3.org/2000/svg" viewBox="0 0 7376.25 1700.79"><defs><style>.cls-1{fill:#fff;}</style></defs><path class="cls-1" d="M4296.74,799.92q-6.57,67-46,120.63t-109.85,91.75q-70.44,38.12-170.31,58.65t-227.17,21.41q-14.72.14-37.17-.55l-.45,5q-4.35,43.86,5.88,76.49t33.74,53.12q23.55,20.55,59,29.77t80.49,9q67.58-.51,143.63-16.72t134.07-43.1l-54.15,172.4q-55.73,21.1-125.87,34.39T3834.5,1426q-92.7.6-158.81-22.91t-106.42-66.68q-40.35-43.14-56.19-102.63t-8.67-131.42a610.51,610.51,0,0,1,26.29-126.75,638.76,638.76,0,0,1,52.48-120.71A596.48,596.48,0,0,1,3660.4,747.6,507.37,507.37,0,0,1,3761,661.74q55.93-36.4,122.95-57.51t143.27-21.67q66.66-.49,118.85,14.88t87.06,43.65a173.13,173.13,0,0,1,51.72,68.72Q4301.62,750.22,4296.74,799.92Zm-206.17,1.38q2.73-27.28-17.9-47t-66.46-19.4q-34.62.24-71.91,13.74t-71.44,39.79q-34.18,26.25-63,64.1t-48.39,86.8q91.83-.65,155.33-12.67t103.51-31.34q40-19.24,58.87-43.81T4090.57,801.3Z"/><path class="cls-1" d="M3258.79,782.73A243.38,243.38,0,0,1,3286.41,740q25.24-30.07,58-44.51t74.79-14.69a386.38,386.38,0,0,1,54,4,632.09,632.09,0,0,1,67,13.31l45.63-145.21q-29.61-9.25-73.75-17.19a505.87,505.87,0,0,0-93.61-7.62,405.33,405.33,0,0,0-80.81,8.81,387.38,387.38,0,0,0-77.92,25.33A374,374,0,0,0,3188,604.85a343.72,343.72,0,0,0-62.48,61.43q-25.25,30.9-45.24,70.82t-37,95.13l-29.95,95.49s-143.07,3.12-203.53,1c-32.67-1.15-44.72-20.25-49-37.63-23.83,66.1-53.08,147.31-60.27,167.4l-10.59,31c8.42-5,19.19-7.67,34-7,28.6,1.28,241.22-.84,241.22-.84l-.54,1.74,1.47,0L2884.1,1343q-15.79,51.33-34.25,88.41t-43.55,61.72a159.59,159.59,0,0,1-58.41,36.63c-6.74,2.45-14.67,5.76-23,9.14-3.29.67-6.15.86-9.67,1.76-108.89,28.06-684.58-3-684.58-3L2312,643.59,2110.81,645,1778.87,1700.79s738.23-.33,906-6.81a2.73,2.73,0,0,0,0,.38c4.1-.17,8.05-.69,12.12-.95,5.53-.29,10.39-.58,13.82-.86.59-.1,1.14-.31,1.73-.38,44.34-4.1,86.37-13,125.85-27.2q81.15-29.28,140.11-100.58,26-30.86,46.7-72.77T3064,1391.37l98-311.13,304.25-1.45L3515,924.89,3208,926.36,3236.42,838A335.51,335.51,0,0,1,3258.79,782.73Z"/><path class="cls-1" d="M2982,1631h43.84l-9,35.67H2973Z"/><path class="cls-1" d="M3162.91,1615.21,3206,1621c-7.1,16-17.6,28.1-31.51,36.43s-30,12.48-48.31,12.48q-31.36,0-49.75-15.55t-18.38-42.84a84.74,84.74,0,0,1,11.14-42.1q11.11-19.79,33.48-31.19a106.43,106.43,0,0,1,49.13-11.41q29,0,46.34,12.62t19.45,33.22l-42.17,3.71c-1-7.64-3.83-13.23-8.43-16.85s-10.55-5.43-18-5.43a40,40,0,0,0-23.93,8c-7.43,5.29-13.1,13.26-17,23.84s-6,20.52-6,29.81c0,8,2.36,14.29,7.09,18.65s10.67,6.54,17.77,6.54a36.89,36.89,0,0,0,20.53-6.43Q3157.38,1628.07,3162.91,1615.21Z"/><path class="cls-1" d="M3226.21,1609.94q0-38,25.72-60.55t67.55-22.6q36.3,0,56.68,16.7t20.38,44.83q0,33.18-25.48,57.39t-68.27,24.17q-23.14,0-41.05-7.71c-12-5.12-20.86-12.44-26.72-21.86A56.51,56.51,0,0,1,3226.21,1609.94Zm126.3-26.36c0-8.81-3.05-15.81-9.17-21.07s-14-7.88-23.69-7.88a45,45,0,0,0-25.51,7.36c-7.38,4.93-13.16,12.12-17.26,21.5s-6.19,18-6.19,25.91q0,14.71,9.57,23.28t24.1,8.67a40.51,40.51,0,0,0,30.55-13C3346.65,1616.07,3352.51,1601.11,3352.51,1583.58Z"/><path class="cls-1" d="M3437.9,1530h41.67l-4.14,16.59q24.39-19.81,51.24-19.81,18.54,0,28.58,6.46a28.43,28.43,0,0,1,12.81,17.76q8.51-10.37,24.41-17.24a81.19,81.19,0,0,1,33.05-7q19.61,0,30.55,8.79t11,23.14c0,4.72-1.46,12.86-4.31,24.44l-21,83.53H3597.4l21-83.53c2.55-10.43,3.84-16.39,3.84-17.77a10.79,10.79,0,0,0-4.1-8.93c-2.71-2.19-6.81-3.26-12.26-3.26q-16.5,0-29.51,14.53-9.42,10.43-16,36.91l-15.59,62h-44.32l20.7-82.63c2.35-9.52,3.55-15.69,3.55-18.53a10.89,10.89,0,0,0-4.39-8.88c-2.95-2.31-7-3.45-12.14-3.45a35.56,35.56,0,0,0-15,3.57,43.52,43.52,0,0,0-13.53,9.91,57,57,0,0,0-9.95,16.24c-1.21,3.09-3.24,10-6,20.95l-15.76,62.82h-44.32Z"/><path class="cls-1" d="M3688.5,1631h43.84l-9,35.67h-43.84Z"/><path class="cls-1" d="M3769.37,1557.42l6.79-27.41h21.62l5.4-21.86,50.82-25.48L3842.09,1530h27l-6.79,27.41h-27.17l-14.38,57.26c-2.57,10.39-3.86,16.29-3.86,17.77a7.67,7.67,0,0,0,3.26,6.62c2.15,1.59,6.05,2.38,11.74,2.38,1.93,0,6.84-.29,14.65-.91l-6.93,27.44a141.55,141.55,0,0,1-23.48,1.9q-23.46,0-34.12-7.5c-7.1-5-10.65-12-10.65-20.93,0-4.19,1.88-13.91,5.69-29l13.77-55Z"/><path class="cls-1" d="M4027.07,1666.69h-41.7l-8-87-50,87h-41.08L3865.69,1530h39.39l11.43,91.63,51.1-91.63h40.31l5.55,91.63,50.82-91.63h44.48Z"/><path class="cls-1" d="M1018.66,1687.45l-750.95,5.17,158-1049.36,722.11-5-29,216.15-440.12,3-35.1,197.88,409.52-2.78-28.85,223.31-409.55,2.83-36.1,196.55,468.91-3.26Z"/><path class="cls-1" d="M2775,528.53c-25.49,42.77,13.26-139.87-58.63-129.16a21.82,21.82,0,0,0-8.69,3.53c25.38,123.77-49.84,368.4-215.29,403.61,14.33,4.41,436.72-73.31,434-213.28C2924.13,478.52,2800.4,485.76,2775,528.53Z"/><path class="cls-1" d="M78.67,1075.88c-74-314,435.07-702.63,1137.13-868.13S2547,162.53,2621,476.5c10.93,46.5,9.12,94.61-4.23,143.44,32.86-77,42.5-153.85,25.17-227.36C2559.82,44.33,1903.76-99,1176.53,72.43s-1250.17,592.76-1168,941C32.9,1117,108,1202.37,220.61,1266.78,145.91,1215.11,96.33,1151,78.67,1075.88Z"/><path class="cls-1" d="M2759.3,787.58l-1.84,3.15.72-2c-.36,1.12-.95,2.07-1.39,3.15a47.56,47.56,0,0,1-7.14,12.16c-11.33,13.77-31.12,24-59.77,39.32-38.26,20.5-98.89,42.46-153.11,105.11C2446.4,1052.88,2316,1495.72,2316,1495.72l196.64-1.34,153.59-448.22C2678.81,1010.9,2759.3,787.58,2759.3,787.58Z"/><path class="cls-1" d="M1672.57,1647.21q-94.44,47.71-250,48.79-181.77,1.29-266.34-106.77t-40.67-280q50.79-198.6,200.57-313.94t351.49-116.71q139.38-1,192.41,35.15l-52.11,203.88q-61.86-55.78-155.8-55.12-104.76.7-181.35,61.63-76.77,60.93-103.92,167.42-26.5,103.47,17,162.07t145.85,57.84q90.87-.64,192.29-57.51Z"/><path class="cls-1" d="M5354.77,1300.6c-188.15,0-273,214.57-367.09,214.57-107.2,0-112.86,15.76-116.22-73.54V1225.49h299.11l183.83,1.19h158.66c92-2.47,165.44-33.56,218.85-90.57,50.18-45.17,78.55-108.42,83.59-191.18,0-87.9-25-160.18-73.57-217-46.76-54.32-111.84-82.71-197.05-84.08H5332.62V541.74H5167.25V643.8H4711.18V754H5503c75.22,6.41,120.27,48.31,133.71,128.53H4711.18v628.14c0,60,17.3,146.2,136.88,146.2h129.08c198.94,0,241.62-222.21,392-223.6,150.42-1.13,136.14,219,441.94,222.42,3.36,0,0-145.94,0-145.94C5587.72,1509.79,5596.62,1300.6,5354.77,1300.6ZM4871.46,994.17h765.29c-13.44,80-60.23,118.82-137,118.82H4871.46Z"/><path class="cls-1" d="M7376.25,1465.51v-121H7288.9V743.06s10.27-180.72-171.35-180.72h-143V640.6c-39.23-55.25-105.8-75.44-155.73-75.44H6445.84v779.38h-161V1195.37h117.28V1077.05H6284.88V930.4h118.84V821.08H6284.88V669.22h115.79V562.52h-256v782h-73.17v121h253.91c-24.26,105.86-99.67,186.72-99.67,186.72h157.44C6422,1612.3,6459,1510.57,6474,1465.51h474.86c15.11,45.06,52.07,146.79,90.9,186.72h157.44s-75.32-80.86-99.64-186.72h278.67Zm-483.19-121H6563.43v-674h219.51c57.39,9,87.91,31.64,100.45,67.23H6617.56v542.74H6760.7s88.62-5.53,88.62-89.11V975.55s-8.7-77.75-81.5-77.75h-76.25V844.57h201.09C6895.4,1003.43,6893.06,1344.54,6893.06,1344.54Zm-201.49-332.32c10.05,0,45.7.14,47.1-.58,18.07,4.92,33.38,17.05,33.38,44.24v91.66s-3.05,43.72-52,43.72h-28.47Zm315.17,332.32V735.89a199.53,199.53,0,0,0-13.69-61.09h109.07s58.11,8,58.11,64.26v80.22H7043.07V927.75h117.16V1080.5H7043.07v108.42h117.16v155.62Z"/></svg>