<?xml version="1.0" encoding="utf-8"?>
<!-- Generator: Adobe Illustrator 26.0.2, SVG Export Plug-In . SVG Version: 6.00 Build 0)  -->
<svg version="1.1" id="圖層_1" xmlns="http://www.w3.org/2000/svg" xmlns:xlink="http://www.w3.org/1999/xlink" x="0px" y="0px"
	 viewBox="0 0 200 100" style="enable-background:new 0 0 200 100;" xml:space="preserve">
<style type="text/css">
	.st0{fill:#EF8D33;}
</style>
<g>
	<path class="st0" d="M148,67.6c-1.4,0-2.7,0.2-4,0.1c-3.2-0.2-5.6-1.8-7-4.7c-1.1-2.2-1.4-4.5-1.4-6.8c0-1,0.2-2.1,0.2-3.1
		c0-0.1,0-0.3,0-0.6c-0.3,0.4-0.6,0.6-0.8,0.9c-1.5,2-2.7,4.1-3.7,6.4c-0.2,0.4-0.1,0.8-0.2,1.2c-0.2,1.1-0.3,2.3-0.5,3.4
		c-0.1,0.8-0.7,1.3-1.4,1.6c-1.8,0.6-3.6,0.6-5.3,0c-0.7-0.3-1.2-0.8-1.4-1.5c-0.2-1-0.4-2-0.4-2.9c-0.1-2.3-0.2-4.6-0.3-6.8
		c0-0.2,0-0.5-0.1-1c-0.4,0.5-0.7,0.7-0.9,1c-1,1.5-1.9,3-2.9,4.5c-0.3,0.5-0.4,1-0.3,1.5c0.1,0.7,0.1,1.4,0.2,2.1
		c0.1,1.2-0.5,2.1-1.6,2.6c-2.1,0.8-4.3,0.8-6.5,0c-0.9-0.3-1.4-1-1.6-1.9c-0.2-1.2-0.4-2.3-0.5-3.5c-0.3-3.5-0.5-7.1-0.7-10.7
		c0-0.6,0-1.3,0.1-1.9c0.2-1.2,0.8-1.8,2-2c1.8-0.2,3.2,0.3,4,1.9c0.8,1.5,1.5,3,2.3,4.6c0.2,0.3,0.3,0.6,0.5,1
		c1.9-0.8,3.8-1.3,5.9-0.4c0-0.6,0-1,0-1.4c0.1-1.4,0.2-2.8,0.4-4.1c0.2-1.2,0.9-2,2.1-2.2c1.3-0.2,2.5,0,3.3,1.2
		c0.5,0.7,0.9,1.6,1.2,2.4c0.4,1.1,0.7,2.1,1.1,3.2c0,0.1,0.1,0.2,0.2,0.4c0.3-0.3,0.6-0.5,0.8-0.7c1.3-1.3,2.9-2.1,4.8-2.4
		c0.6-0.1,1-0.2,1.4-0.8c0.3-0.5,0.9-0.9,1.4-1.1c0.6-0.2,1.2-0.3,1.9-0.3c2,0,3,0.7,3.4,2.7c0.4,2,0.7,4.1,1,6.1
		c0.3,1.5,0.6,3.1,0.8,4.6c0.1,0.4,0.2,0.7,0.3,1.3c1.2-1.4,2.4-2.5,2.7-4.4c0.5-3.1,1.2-6.2,1.9-9.2c0.5-2.1,2.4-3,4.5-2.4
		c0.8,0.2,1.3,0.8,1.6,1.6c0.9,2.1,1.5,4.3,1.8,6.6c0.7,6.6,0.9,13.3,0,19.9c-0.4,3.1-1.1,6.2-2.1,9.1c-0.3,0.8-0.7,1.7-1.1,2.4
		c-1.8,3.4-4.6,5.7-8.3,6.7c-3.1,0.9-6.2,1.5-9.5,1.6c-1.2,0-2.3-0.1-3.5-0.3c-0.8-0.1-0.9-0.4-1.4-1.1c0.4-0.6,1.1-0.7,1.8-0.7
		c2.5,0,4.8-0.8,7.1-1.7c1.5-0.6,2.5-1.7,3.3-3.1c1.5-2.7,2.4-5.6,2.8-8.6c0.5-3.4,0.5-6.7,0.4-10.1C148.1,67.9,148.1,67.8,148,67.6
		z"/>
	<path class="st0" d="M31.6,12.8c4.1,0,7.8,0.5,11.3,1.9c2.4,0.9,4.6,2.2,6.3,4c0.6,0.6,1.1,1.3,1.4,2c0.5,0.9,0.2,1.6-0.8,1.9
		c-1.7,0.5-3.2,0.4-4.6-0.9c-0.7-0.7-1.4-1.5-2.2-2.2c-3.6-2.7-7.7-4-12.3-3.7c-2.5,0.2-4.8,0.8-6.9,2c-2.1,1.2-3.6,2.9-4.3,5.2
		c-0.7,2-0.3,3.8,1.2,5.2c0.8,0.7,1.6,1.4,2.5,2c1.4,0.9,2.9,1.8,4.4,2.6c4,2.3,8,4.7,11.6,7.6c3.4,2.7,6.4,5.8,8.8,9.4
		c1.1,1.6,2,3.3,2.6,5.1c0.4,1.3,0.7,2.5,0.7,3.9c-0.1,2.7-1.4,4.8-3.5,6.4c-2,1.5-4.3,2.3-6.7,2.8c-4.6,0.9-9.2,0.5-13.7-0.8
		c-2-0.6-3.9-1.2-5.8-2c-3.1-1.3-5.2-3.8-7-6.5c-0.5-0.7-0.8-1.5-0.3-2.3c0.5-0.9,1.4-1.1,2.4-1.1c0.8,0,1.5,0.2,1.8,1.1
		c0.1,0.3,0.5,0.6,0.8,0.8c4.5,3.8,9.7,6,15.5,7.1c1.2,0.2,2.5,0.3,3.7-0.2c2.5-1.1,3.8-3.7,3.2-6.6c-0.3-1.6-1-3.1-1.9-4.5
		c-2.4-4-5.5-7.3-9-10.2c-3.8-3.1-8-5.7-12.1-8.4c-1.6-1.1-3.1-2.2-4.6-3.3c-1.1-0.8-1.9-1.9-2.5-3.1c-0.9-1.8-0.9-3.6-0.2-5.4
		c0.8-2.1,2.2-3.7,3.9-5.1c2.5-1.9,5.4-3.1,8.5-3.8C26.4,13.1,29.1,12.7,31.6,12.8z"/>
	<path class="st0" d="M64.6,45.8c0.4-0.3,0.6-0.5,0.9-0.8c3.2-3.2,8.3-4,12.3-1.9c1.4,0.7,2.5,1.7,3.3,3c2.1,3.2,3.2,6.8,3.4,10.6
		c0.1,1.1-0.2,2.3-0.5,3.4c-0.2,0.9-0.5,1.8-0.8,2.8c-0.3,1-1,1.6-2,1.7c-2,0.2-2.8-0.4-3.4-1.8c-1.5-3.4-2.4-6.9-3.1-10.5
		c-0.3-1.7-1-3.3-1.5-4.9c-0.2-0.6-0.7-1.2-1.1-1.9c-0.4,0.4-0.8,0.6-1.1,0.9c-1.5,1.4-2.6,3.1-3.3,5c-0.8,1.9-1.4,4-2,6
		c-0.1,0.5-0.1,1-0.1,1.5c0.1,1.9,0.1,3.7,0.2,5.5c0,0.4,0,0.8,0,1.2c0,0.8-0.4,1.3-1.1,1.6c-1.8,0.7-3.6,0.7-5.4,0
		c-0.8-0.3-1.1-1-1.3-1.8c-0.3-1.2-0.5-2.5-0.8-3.8c-1-5-2-9.9-3-14.9c-1.1-5.8-1.9-11.7-2.1-17.6c-0.1-3.8-0.1-7.6-0.1-11.4
		c0-1.3,0.2-2.6,0.3-3.9c0.1-1.2,0.7-2.1,1.9-2.4c1.4-0.3,2.8-0.3,3.8,0.9c0.6,0.7,1,1.5,1.2,2.3c0.6,2.2,1.2,4.3,1.5,6.5
		C62.1,29,63.3,37,64.5,45C64.5,45.2,64.6,45.4,64.6,45.8z"/>
	<path class="st0" d="M95.5,59.6c0.5,1.6,0.9,3,1.4,4.4c0.4,1.3,1.6,1.9,2.8,2.5c0.4,0.2,1,0.1,0.9,0.7c-0.1,0.6-0.7,0.6-1.1,0.6
		c-1.4,0.2-2.8,0-4.2-0.5c-0.9-0.3-1.8-0.6-2.7-1c-3.1-1.2-4.8-3.5-5.1-6.8c-0.1-1.1-0.2-2.1-0.2-3.2c0-0.6-0.2-1-0.5-1.5
		c-0.4-0.6-0.8-1.4-1-2.1c-0.3-1.1,0.1-1.9,1.2-2.1c0.8-0.2,1.2-0.6,1.5-1.3c0.9-2,2.5-3.1,4.6-3.4c3.2-0.6,6.2,0.1,9,1.9
		c1.4,0.9,2.4,2.1,2.8,3.7c0.4,1.5,0.7,3.1,0.9,4.6c0.2,1.2-0.4,2.1-1.4,2.6c-1.1,0.6-2.2,0.9-3.5,1c-1.5,0-3-0.1-4.5-0.1
		C96.1,59.7,95.9,59.7,95.5,59.6z M98.1,55.9c1.2-2.8-0.3-6.5-2.7-7.1c-0.1,0.1-0.2,0.2-0.2,0.3c-0.7,1.6-0.7,3.2-0.5,4.9
		c0,0.2,0.2,0.5,0.4,0.6C96,55,97,55.4,98.1,55.9z"/>
	<path class="st0" d="M177.4,54.7c2.2,0.6,4.3,1.1,6.3,1.8c1.8,0.6,3.4,1.6,4.9,2.8c0.7,0.6,1.4,1.3,2,2.1c1.2,1.7,1.1,3.7-0.2,5.4
		c-0.9,1.1-2,1.9-3.3,2.5c-2,1-4.1,1.5-6.3,1.9c-2.9,0.4-5.8,0.3-8.6-0.4c-0.9-0.2-1.7-0.6-2.5-0.9c-0.4-0.2-0.9-0.6-0.7-1.1
		c0.1-0.3,0.5-0.7,0.9-0.8c0.8-0.4,1.7-0.4,2.6-0.2c0.9,0.2,1.8,0.2,2.8,0.1c1.7-0.3,3.4-0.6,4.9-1.3c1-0.4,1.8-1,2.4-1.9
		c0.7-1,0.8-2,0.1-3c-0.8-1.3-2-2.2-3.4-2.6c-1.4-0.5-2.8-0.7-4.2-1.1c-1.1-0.3-2.3-0.5-3.4-0.8c-0.6-0.2-1.2-0.5-1.7-0.9
		c-0.8-0.6-1-1.5-0.4-2.4c0.4-0.6,0.8-1.1,1.4-1.5c1.3-0.8,2.6-1.7,4.1-2.3c2.9-1.2,5.9-1.9,9-2c0.8,0,1.6,0,2.4,0.1
		c0.3,0,0.7,0.2,1,0.3c0.9,0.4,1,1.1,0.1,1.6c-0.8,0.4-1.6,0.8-2.5,1c-2.5,0.7-4.8,1.9-7,3.1C177.9,54.3,177.7,54.5,177.4,54.7z"/>
	<path class="st0" d="M171.3,40.9c0.8,0.2,1.7,0.4,2.4,0.7c0.8,0.4,1,1,0.5,1.7c-0.2,0.3-0.4,0.6-0.7,0.8c-0.6,0.5-1.2,1.1-1.8,1.5
		c-1.9,1.1-3.8,2.2-5.7,3.1c-1.2,0.6-2.5,0.8-3.8,0.5c-0.1,0-0.3,0-0.4-0.1c-1.2-0.4-1.4-1-0.6-2c1.7-2,3.4-3.8,5.7-5
		C168.3,41.6,169.7,41.1,171.3,40.9z"/>
</g>
</svg>
