<?xml version="1.0" encoding="utf-8"?>
<!-- Generator: Adobe Illustrator 26.0.2, SVG Export Plug-In . SVG Version: 6.00 Build 0)  -->
<svg version="1.1" id="圖層_1" xmlns="http://www.w3.org/2000/svg" xmlns:xlink="http://www.w3.org/1999/xlink" x="0px" y="0px"
	 viewBox="0 0 200 200" style="enable-background:new 0 0 200 200;" xml:space="preserve">
<style type="text/css">
	.st0{fill:#EF8D33;}
</style>
<path class="st0" d="M102,6.2c13.8,0,26.2,1.7,37.9,6.4c8.1,3,15.4,7.4,21.1,13.4c2,2,3.7,4.4,4.7,6.7c1.7,3,0.7,5.4-2.7,6.4
	c-5.7,1.7-10.7,1.3-15.4-3c-2.3-2.3-4.7-5-7.4-7.4c-12.1-9.1-25.8-13.4-41.3-12.4c-8.4,0.7-16.1,2.7-23.1,6.7
	c-7,4-12.1,9.7-14.4,17.4c-2.3,6.7-1,12.7,4,17.4c2.7,2.3,5.4,4.7,8.4,6.7c4.7,3,9.7,6,14.8,8.7c13.4,7.7,26.8,15.8,38.9,25.5
	c11.4,9.1,21.5,19.5,29.5,31.5c3.7,5.4,6.7,11.1,8.7,17.1c1.3,4.4,2.3,8.4,2.3,13.1c-0.3,9.1-4.7,16.1-11.7,21.5
	c-6.7,5-14.4,7.7-22.5,9.4c-15.4,3-30.9,1.7-46-2.7c-6.7-2-13.1-4-19.5-6.7C58,177.6,51,169.2,44.9,160.2c-1.7-2.3-2.7-5-1-7.7
	c1.7-3,4.7-3.7,8.1-3.7c2.7,0,5,0.7,6,3.7c0.3,1,1.7,2,2.7,2.7c15.1,12.7,32.5,20.1,52,23.8c4,0.7,8.4,1,12.4-0.7
	c8.4-3.7,12.7-12.4,10.7-22.1c-1-5.4-3.4-10.4-6.4-15.1c-8.1-13.4-18.4-24.5-30.2-34.2C86.5,96.4,72.4,87.7,58.7,78.7
	c-5.4-3.7-10.4-7.4-15.4-11.1c-3.7-2.7-6.4-6.4-8.4-10.4c-3-6-3-12.1-0.7-18.1c2.7-7,7.4-12.4,13.1-17.1
	c8.4-6.4,18.1-10.4,28.5-12.7C84.5,7.2,93.6,5.9,102,6.2z"/>
</svg>
